<svg xmlns="http://www.w3.org/2000/svg" viewBox="0 0 477.94 86.58"><defs><style>.cls-1{fill:#f39e1e;}.cls-2{fill:#fdfeff;}.cls-3{fill:#303030;}.cls-4{fill:#f49e1e;}</style></defs><g id="Layer_2" data-name="Layer 2"><g id="Layer_1-2" data-name="Layer 1"><path class="cls-1" d="M291.76,0V1.48l.05-.08C291.77,1,291.76.49,291.76,0Z"/><path class="cls-1" d="M40.79,19.47a2.13,2.13,0,0,1,1.54.65A2.09,2.09,0,0,1,43,21.66v5.75A2.09,2.09,0,0,1,42.33,29a2.13,2.13,0,0,1-1.54.65H14.94V45.32H39.17a2.2,2.2,0,0,1,2.18,2.19v5.75a2.22,2.22,0,0,1-2.18,2.19H14.94V74a2.22,2.22,0,0,1-2.19,2.19H6.19A2.22,2.22,0,0,1,4,74V21.66a2.1,2.1,0,0,1,.65-1.54,2.1,2.1,0,0,1,1.54-.65Z"/><path class="cls-1" d="M69.31,33.24a22.42,22.42,0,0,1,8.06,1.38,19.31,19.31,0,0,1,6.24,3.81,19,19,0,0,1,4.21,5.67,18.54,18.54,0,0,1,1.82,7,16.08,16.08,0,0,1,.08,1.86v4.5a15.45,15.45,0,0,1-.08,1.82,19.93,19.93,0,0,1-1.86,7,18,18,0,0,1-4.17,5.63,19.57,19.57,0,0,1-6.24,3.77,24.26,24.26,0,0,1-16.13,0A19.41,19.41,0,0,1,55,71.85a17.87,17.87,0,0,1-4.18-5.63,20.15,20.15,0,0,1-1.86-7c-.06-.48-.1-1.09-.12-1.82s0-1.47,0-2.23,0-1.51,0-2.27.06-1.37.12-1.86a18.54,18.54,0,0,1,1.82-7,18.92,18.92,0,0,1,10.45-9.48A22.44,22.44,0,0,1,69.31,33.24Zm9.8,18.23a10.58,10.58,0,0,0-1.17-4.17,8.14,8.14,0,0,0-2.31-2.63,8.44,8.44,0,0,0-3-1.34,15.54,15.54,0,0,0-6.65,0,8.32,8.32,0,0,0-3,1.34,7.91,7.91,0,0,0-2.31,2.63,10.58,10.58,0,0,0-1.18,4.17c0,.44-.09,1-.12,1.63s0,1.32,0,2,0,1.39,0,2.07.07,1.2.12,1.58a10.58,10.58,0,0,0,1.18,4.17A7.81,7.81,0,0,0,63,65.57a8.15,8.15,0,0,0,3,1.34,15.13,15.13,0,0,0,6.65,0,8.27,8.27,0,0,0,3-1.34,8,8,0,0,0,2.31-2.63,10.58,10.58,0,0,0,1.17-4.17,12.69,12.69,0,0,0,.08-1.58V53.1A14.62,14.62,0,0,0,79.11,51.47Z"/><path class="cls-1" d="M117.43,33.24a22.44,22.44,0,0,1,8.07,1.38,19.31,19.31,0,0,1,6.24,3.81A19,19,0,0,1,136,44.1a18.54,18.54,0,0,1,1.82,7,16.08,16.08,0,0,1,.08,1.86v4.5a15.45,15.45,0,0,1-.08,1.82,20.15,20.15,0,0,1-1.86,7,18,18,0,0,1-4.17,5.63,19.57,19.57,0,0,1-6.24,3.77,24.26,24.26,0,0,1-16.13,0,19.57,19.57,0,0,1-6.24-3.77A18,18,0,0,1,99,66.22a19.93,19.93,0,0,1-1.86-7c-.06-.48-.1-1.09-.12-1.82s0-1.47,0-2.23,0-1.51,0-2.27.06-1.37.12-1.86a18.54,18.54,0,0,1,1.82-7,19,19,0,0,1,4.21-5.67,19.31,19.31,0,0,1,6.24-3.81A22.42,22.42,0,0,1,117.43,33.24Zm9.81,18.23a10.58,10.58,0,0,0-1.18-4.17,7.91,7.91,0,0,0-2.31-2.63,8.32,8.32,0,0,0-3-1.34,15.54,15.54,0,0,0-6.65,0,8.44,8.44,0,0,0-3,1.34,8,8,0,0,0-2.3,2.63,10.41,10.41,0,0,0-1.18,4.17c0,.44-.09,1-.12,1.63s0,1.32,0,2,0,1.39,0,2.07.07,1.2.12,1.58a10.41,10.41,0,0,0,1.18,4.17,7.9,7.9,0,0,0,2.3,2.63,8.27,8.27,0,0,0,3,1.34,15.13,15.13,0,0,0,6.65,0,8.15,8.15,0,0,0,3-1.34,7.81,7.81,0,0,0,2.31-2.63,10.58,10.58,0,0,0,1.18-4.17,12.69,12.69,0,0,0,.08-1.58V53.1A14.62,14.62,0,0,0,127.24,51.47Z"/><path class="cls-1" d="M163.21,33.24a19.14,19.14,0,0,1,4.5.49A17,17,0,0,1,171.19,35a13.19,13.19,0,0,1,2.56,1.58,14.22,14.22,0,0,1,1.7,1.58V20.85a2.06,2.06,0,0,1,.65-1.54,2.1,2.1,0,0,1,1.54-.65h6.15A2.22,2.22,0,0,1,186,20.85V74a2.22,2.22,0,0,1-2.19,2.19h-6.15a2.1,2.1,0,0,1-1.54-.65,2.08,2.08,0,0,1-.65-1.54V72.14a16.08,16.08,0,0,1-1.7,1.58,14.24,14.24,0,0,1-2.56,1.58,17.66,17.66,0,0,1-3.48,1.21,18.63,18.63,0,0,1-4.5.49,16.73,16.73,0,0,1-7.33-1.58,17.5,17.5,0,0,1-5.59-4.21,20.35,20.35,0,0,1-3.65-6.08,22.5,22.5,0,0,1-1.5-7.17c0-.81-.08-1.76-.08-2.84s0-2,.08-2.83a22.5,22.5,0,0,1,1.5-7.18A20.17,20.17,0,0,1,150.29,39a17.38,17.38,0,0,1,5.59-4.22A16.73,16.73,0,0,1,163.21,33.24Zm-7.53,19.61a21.53,21.53,0,0,0,0,4.54q.48,5.27,3.24,7.58a10.1,10.1,0,0,0,6.72,2.31,9.85,9.85,0,0,0,6.69-2.36,9.63,9.63,0,0,0,3.12-6.72,23.76,23.76,0,0,0,.16-3.08,23.76,23.76,0,0,0-.16-3.08,9.78,9.78,0,0,0-3.12-6.64A9.67,9.67,0,0,0,165.64,43a10.1,10.1,0,0,0-6.72,2.31Q156.16,47.59,155.68,52.85Z"/><path class="cls-1" d="M224.47,19.47a2.54,2.54,0,0,1,1.94.69,6,6,0,0,1,1.14,2.07l19.85,51.2a2,2,0,0,1,.08.57,2.22,2.22,0,0,1-2.19,2.19h-5.83a3,3,0,0,1-2.27-.69,4.15,4.15,0,0,1-.89-1.34l-3.49-9h-25.6l-3.48,9a4.2,4.2,0,0,1-.9,1.34,3,3,0,0,1-2.26.69h-5.84A2.22,2.22,0,0,1,192.54,74a1.66,1.66,0,0,1,.09-.57l19.85-51.2a5.84,5.84,0,0,1,1.13-2.07,2.54,2.54,0,0,1,1.94-.69ZM228.92,55,220,32,211.1,55Z"/><path class="cls-1" d="M273.73,43.78q-4.86,0-7,2.14c-1.43,1.44-2.15,3.77-2.15,7V74a2.11,2.11,0,0,1-.64,1.54,2.13,2.13,0,0,1-1.54.65h-6.16A2.22,2.22,0,0,1,254,74V36.24a2.13,2.13,0,0,1,.65-1.54,2.1,2.1,0,0,1,1.54-.65h6.16a2.2,2.2,0,0,1,2.18,2.19v1.87a16.38,16.38,0,0,1,4.5-3,15.78,15.78,0,0,1,6.28-1.06H279a2.2,2.2,0,0,1,2.18,2.19v5.35a2.11,2.11,0,0,1-.64,1.54,2.13,2.13,0,0,1-1.54.65Z"/><path class="cls-1" d="M334.9,36.24a2.22,2.22,0,0,1,2.19-2.19h6.16a2.22,2.22,0,0,1,2.19,2.19V56.82a13.25,13.25,0,0,0,2.06,7.78q2.07,2.93,6.77,2.92a7.8,7.8,0,0,0,6.56-2.92,12.35,12.35,0,0,0,2.27-7.78V36.24a2.13,2.13,0,0,1,.65-1.54,2.1,2.1,0,0,1,1.54-.65h6.16a2.2,2.2,0,0,1,2.18,2.19V74a2.11,2.11,0,0,1-.64,1.54,2.13,2.13,0,0,1-1.54.65h-6.16A2.22,2.22,0,0,1,363.1,74V72.14a20,20,0,0,1-4.62,3.36,13.69,13.69,0,0,1-6.64,1.5,19.13,19.13,0,0,1-8.18-1.54,13.65,13.65,0,0,1-5.19-4.13,16,16,0,0,1-2.76-6A31.59,31.59,0,0,1,334.9,58Z"/><path class="cls-1" d="M424.27,74a2.11,2.11,0,0,1-.64,1.54,2.13,2.13,0,0,1-1.54.65h-6.16A2.22,2.22,0,0,1,413.74,74V53.42a12.36,12.36,0,0,0-2.27-7.78c-1.51-1.94-3.83-2.92-7-2.92a8.41,8.41,0,0,0-6.76,2.92,11.63,11.63,0,0,0-2.47,7.78V74a2.22,2.22,0,0,1-2.19,2.19h-6.16A2.22,2.22,0,0,1,384.73,74V36.24a2.22,2.22,0,0,1,2.19-2.19h6.16a2.22,2.22,0,0,1,2.19,2.19v1.87a18,18,0,0,1,4.94-3.49,15.22,15.22,0,0,1,6.73-1.38,19.74,19.74,0,0,1,8.26,1.54,14.32,14.32,0,0,1,5.35,4.14,15.76,15.76,0,0,1,2.87,6,30.06,30.06,0,0,1,.85,7.25Z"/><path class="cls-1" d="M451.17,33.24a19.14,19.14,0,0,1,4.5.49A17.35,17.35,0,0,1,459.16,35a13.73,13.73,0,0,1,4.25,3.16V20.85a2.06,2.06,0,0,1,.65-1.54,2.1,2.1,0,0,1,1.54-.65h6.15a2.1,2.1,0,0,1,1.54.65,2.06,2.06,0,0,1,.65,1.54V74a2.08,2.08,0,0,1-.65,1.54,2.1,2.1,0,0,1-1.54.65H465.6a2.1,2.1,0,0,1-1.54-.65,2.08,2.08,0,0,1-.65-1.54V72.14a15.15,15.15,0,0,1-1.7,1.58,14.49,14.49,0,0,1-2.55,1.58,18,18,0,0,1-3.49,1.21,18.63,18.63,0,0,1-4.5.49,16.73,16.73,0,0,1-7.33-1.58,17.5,17.5,0,0,1-5.59-4.21,20.56,20.56,0,0,1-3.65-6.08A22.22,22.22,0,0,1,433.11,58c-.06-.81-.09-1.76-.09-2.84s0-2,.09-2.83a22.22,22.22,0,0,1,1.49-7.18A20.38,20.38,0,0,1,438.25,39a17.38,17.38,0,0,1,5.59-4.22A16.73,16.73,0,0,1,451.17,33.24Zm-7.53,19.61a21.53,21.53,0,0,0,0,4.54q.48,5.27,3.24,7.58a10.1,10.1,0,0,0,6.72,2.31,9.85,9.85,0,0,0,6.69-2.36,9.63,9.63,0,0,0,3.12-6.72,23.76,23.76,0,0,0,.16-3.08,23.76,23.76,0,0,0-.16-3.08,9.78,9.78,0,0,0-3.12-6.64A9.67,9.67,0,0,0,453.6,43a10.1,10.1,0,0,0-6.72,2.31Q444.12,47.59,443.64,52.85Z"/><path class="cls-2" d="M40.79,15.2A2.2,2.2,0,0,1,43,17.39v5.75a2.11,2.11,0,0,1-.64,1.54,2.13,2.13,0,0,1-1.54.65H14.94V41.05H39.17a2.2,2.2,0,0,1,2.18,2.18V49a2.2,2.2,0,0,1-2.18,2.18H14.94V69.73a2.22,2.22,0,0,1-2.19,2.19H6.19A2.22,2.22,0,0,1,4,69.73V17.39a2.1,2.1,0,0,1,.65-1.54,2.06,2.06,0,0,1,1.54-.65Z"/><path class="cls-2" d="M69.31,29a22.42,22.42,0,0,1,8.06,1.38,19.31,19.31,0,0,1,6.24,3.81,19,19,0,0,1,4.21,5.67,18.49,18.49,0,0,1,1.82,7,16,16,0,0,1,.08,1.86v4.5A15.45,15.45,0,0,1,89.64,55a19.93,19.93,0,0,1-1.86,7,18,18,0,0,1-4.17,5.63,19.75,19.75,0,0,1-6.24,3.77,24.26,24.26,0,0,1-16.13,0A19.59,19.59,0,0,1,55,67.58,17.87,17.87,0,0,1,50.83,62,20.15,20.15,0,0,1,49,55c-.06-.48-.1-1.09-.12-1.82s0-1.47,0-2.23,0-1.51,0-2.27.06-1.38.12-1.86a18.49,18.49,0,0,1,1.82-7,18.92,18.92,0,0,1,10.45-9.48A22.44,22.44,0,0,1,69.31,29Zm9.8,18.23A10.58,10.58,0,0,0,77.94,43a8,8,0,0,0-2.31-2.63,8.27,8.27,0,0,0-3-1.34,15.54,15.54,0,0,0-6.65,0,8.15,8.15,0,0,0-3,1.34A7.81,7.81,0,0,0,60.68,43,10.58,10.58,0,0,0,59.5,47.2c0,.44-.09,1-.12,1.62s0,1.33,0,2,0,1.39,0,2.07.07,1.2.12,1.58a10.58,10.58,0,0,0,1.18,4.17A7.81,7.81,0,0,0,63,61.3a8.15,8.15,0,0,0,3,1.34,15.54,15.54,0,0,0,6.65,0,8.27,8.27,0,0,0,3-1.34,8,8,0,0,0,2.31-2.63,10.58,10.58,0,0,0,1.17-4.17,12.69,12.69,0,0,0,.08-1.58v-4.1A14.42,14.42,0,0,0,79.11,47.2Z"/><path class="cls-2" d="M117.43,29a22.44,22.44,0,0,1,8.07,1.38,19.31,19.31,0,0,1,6.24,3.81A19,19,0,0,1,136,39.83a18.49,18.49,0,0,1,1.82,7,16,16,0,0,1,.08,1.86v4.5a15.45,15.45,0,0,1-.08,1.82,20.15,20.15,0,0,1-1.86,7,18,18,0,0,1-4.17,5.63,19.75,19.75,0,0,1-6.24,3.77,24.26,24.26,0,0,1-16.13,0,19.75,19.75,0,0,1-6.24-3.77A18,18,0,0,1,99,62a19.93,19.93,0,0,1-1.86-7C97,54.5,97,53.89,97,53.16s0-1.47,0-2.23,0-1.51,0-2.27.06-1.38.12-1.86a18.49,18.49,0,0,1,1.82-7,19,19,0,0,1,4.21-5.67,19.31,19.31,0,0,1,6.24-3.81A22.42,22.42,0,0,1,117.43,29Zm9.81,18.23A10.58,10.58,0,0,0,126.06,43a7.81,7.81,0,0,0-2.31-2.63,8.15,8.15,0,0,0-3-1.34,15.54,15.54,0,0,0-6.65,0,8.27,8.27,0,0,0-3,1.34,7.9,7.9,0,0,0-2.3,2.63,10.41,10.41,0,0,0-1.18,4.17c0,.44-.09,1-.12,1.62s0,1.33,0,2,0,1.39,0,2.07.07,1.2.12,1.58a10.41,10.41,0,0,0,1.18,4.17,7.9,7.9,0,0,0,2.3,2.63,8.27,8.27,0,0,0,3,1.34,15.54,15.54,0,0,0,6.65,0,8.15,8.15,0,0,0,3-1.34,7.81,7.81,0,0,0,2.31-2.63,10.58,10.58,0,0,0,1.18-4.17,12.69,12.69,0,0,0,.08-1.58v-4.1A14.42,14.42,0,0,0,127.24,47.2Z"/><path class="cls-2" d="M163.21,29a18.63,18.63,0,0,1,4.5.49,17.66,17.66,0,0,1,3.48,1.21,14.24,14.24,0,0,1,2.56,1.58,16.08,16.08,0,0,1,1.7,1.58V16.58a2.22,2.22,0,0,1,2.19-2.19h6.15a2.06,2.06,0,0,1,1.54.65,2.1,2.1,0,0,1,.65,1.54V69.73a2.22,2.22,0,0,1-2.19,2.19h-6.15a2.1,2.1,0,0,1-1.54-.65,2.08,2.08,0,0,1-.65-1.54V67.86a14.22,14.22,0,0,1-1.7,1.58A13.19,13.19,0,0,1,171.19,71a17,17,0,0,1-3.48,1.22,19.14,19.14,0,0,1-4.5.49,16.73,16.73,0,0,1-7.33-1.58,17.38,17.38,0,0,1-5.59-4.22,20.17,20.17,0,0,1-3.65-6.07,22.5,22.5,0,0,1-1.5-7.18c0-.8-.08-1.75-.08-2.83s0-2,.08-2.84a22.5,22.5,0,0,1,1.5-7.17,20.17,20.17,0,0,1,3.65-6.07,17.38,17.38,0,0,1,5.59-4.22A16.73,16.73,0,0,1,163.21,29Zm-7.53,19.61a21.53,21.53,0,0,0,0,4.54q.48,5.27,3.24,7.57A10.1,10.1,0,0,0,165.64,63a9.85,9.85,0,0,0,6.69-2.35,9.65,9.65,0,0,0,3.12-6.72,23.76,23.76,0,0,0,.16-3.08,23.76,23.76,0,0,0-.16-3.08,9.78,9.78,0,0,0-3.12-6.64,9.67,9.67,0,0,0-6.69-2.43A10.05,10.05,0,0,0,158.92,41C157.08,42.54,156,45.07,155.68,48.58Z"/><path class="cls-2" d="M224.47,15.2a2.54,2.54,0,0,1,1.94.69A6,6,0,0,1,227.55,18L247.4,69.16a1.91,1.91,0,0,1,.08.57,2.22,2.22,0,0,1-2.19,2.19h-5.83a3,3,0,0,1-2.27-.69,4.15,4.15,0,0,1-.89-1.34l-3.49-9h-25.6l-3.48,9a4.2,4.2,0,0,1-.9,1.34,3,3,0,0,1-2.26.69h-5.84a2.22,2.22,0,0,1-2.19-2.19,1.62,1.62,0,0,1,.09-.57L212.48,18a5.87,5.87,0,0,1,1.13-2.06,2.54,2.54,0,0,1,1.94-.69Zm4.45,35.57L220,27.68,211.1,50.77Z"/><path class="cls-2" d="M273.73,39.51q-4.86,0-7,2.14c-1.43,1.44-2.15,3.77-2.15,7V69.73a2.11,2.11,0,0,1-.64,1.54,2.13,2.13,0,0,1-1.54.65h-6.16A2.22,2.22,0,0,1,254,69.73V32a2.22,2.22,0,0,1,2.19-2.19h6.16a2.13,2.13,0,0,1,1.54.65,2.11,2.11,0,0,1,.64,1.54v1.86a16.56,16.56,0,0,1,4.5-3,15.61,15.61,0,0,1,6.28-1.06H279a2.13,2.13,0,0,1,1.54.65,2.11,2.11,0,0,1,.64,1.54v5.35a2.11,2.11,0,0,1-.64,1.54,2.13,2.13,0,0,1-1.54.65Z"/><path class="cls-2" d="M334.9,32a2.22,2.22,0,0,1,2.19-2.19h6.16A2.22,2.22,0,0,1,345.44,32V52.55a13.27,13.27,0,0,0,2.06,7.78c1.38,1.94,3.64,2.92,6.77,2.92a7.82,7.82,0,0,0,6.56-2.92,12.36,12.36,0,0,0,2.27-7.78V32a2.22,2.22,0,0,1,2.19-2.19h6.16a2.13,2.13,0,0,1,1.54.65,2.11,2.11,0,0,1,.64,1.54V69.73a2.11,2.11,0,0,1-.64,1.54,2.13,2.13,0,0,1-1.54.65h-6.16a2.22,2.22,0,0,1-2.19-2.19V67.86a19.69,19.69,0,0,1-4.62,3.37,13.69,13.69,0,0,1-6.64,1.5,19.13,19.13,0,0,1-8.18-1.54,13.68,13.68,0,0,1-5.19-4.14,16,16,0,0,1-2.76-6,31.59,31.59,0,0,1-.81-7.25Z"/><path class="cls-2" d="M424.27,69.73a2.11,2.11,0,0,1-.64,1.54,2.13,2.13,0,0,1-1.54.65h-6.16a2.22,2.22,0,0,1-2.19-2.19V49.15a12.35,12.35,0,0,0-2.27-7.78q-2.27-2.92-7-2.92a8.38,8.38,0,0,0-6.76,2.92,11.62,11.62,0,0,0-2.47,7.78V69.73a2.22,2.22,0,0,1-2.19,2.19h-6.16a2.22,2.22,0,0,1-2.19-2.19V32a2.22,2.22,0,0,1,2.19-2.19h6.16A2.22,2.22,0,0,1,395.27,32v1.86a18.16,18.16,0,0,1,4.94-3.48A15.22,15.22,0,0,1,406.94,29a19.74,19.74,0,0,1,8.26,1.54,14.4,14.4,0,0,1,5.35,4.13,15.73,15.73,0,0,1,2.87,6,30,30,0,0,1,.85,7.25Z"/><path class="cls-2" d="M451.17,29a18.63,18.63,0,0,1,4.5.49,18,18,0,0,1,3.49,1.21,14.49,14.49,0,0,1,2.55,1.58,15.15,15.15,0,0,1,1.7,1.58V16.58a2.22,2.22,0,0,1,2.19-2.19h6.15a2.22,2.22,0,0,1,2.19,2.19V69.73a2.08,2.08,0,0,1-.65,1.54,2.1,2.1,0,0,1-1.54.65H465.6a2.1,2.1,0,0,1-1.54-.65,2.08,2.08,0,0,1-.65-1.54V67.86A13.73,13.73,0,0,1,459.16,71a17.35,17.35,0,0,1-3.49,1.22,19.14,19.14,0,0,1-4.5.49,16.73,16.73,0,0,1-7.33-1.58,17.38,17.38,0,0,1-5.59-4.22,20.38,20.38,0,0,1-3.65-6.07,22.22,22.22,0,0,1-1.49-7.18c-.06-.8-.09-1.75-.09-2.83s0-2,.09-2.84a22.22,22.22,0,0,1,1.49-7.17,20.38,20.38,0,0,1,3.65-6.07,17.38,17.38,0,0,1,5.59-4.22A16.73,16.73,0,0,1,451.17,29Zm-7.53,19.61a21.53,21.53,0,0,0,0,4.54q.48,5.27,3.24,7.57A10.1,10.1,0,0,0,453.6,63a9.85,9.85,0,0,0,6.69-2.35,9.65,9.65,0,0,0,3.12-6.72,23.76,23.76,0,0,0,.16-3.08,23.76,23.76,0,0,0-.16-3.08,9.78,9.78,0,0,0-3.12-6.64,9.67,9.67,0,0,0-6.69-2.43A10.05,10.05,0,0,0,446.88,41C445,42.54,444,45.07,443.64,48.58Z"/><path class="cls-3" d="M40.79,15.2A2.2,2.2,0,0,1,43,17.39v10A2.09,2.09,0,0,1,42.33,29a2.13,2.13,0,0,1-1.54.65H14.94V41.05H39.17a2.2,2.2,0,0,1,2.18,2.18v10a2.22,2.22,0,0,1-2.18,2.19H14.94V74a2.22,2.22,0,0,1-2.19,2.19H6.19A2.22,2.22,0,0,1,4,74V17.39a2.1,2.1,0,0,1,.65-1.54,2.06,2.06,0,0,1,1.54-.65h34.6m0-4H6.19A6.06,6.06,0,0,0,1.82,13,6.06,6.06,0,0,0,0,17.39V74a6.06,6.06,0,0,0,1.82,4.37,6,6,0,0,0,4.37,1.82h6.56A6.21,6.21,0,0,0,18.94,74V59.45H39.17a6.21,6.21,0,0,0,6.18-6.19v-10a6.21,6.21,0,0,0-6.18-6.18H18.94V33.6H40.79A6.21,6.21,0,0,0,47,27.41v-10a6.2,6.2,0,0,0-6.18-6.19Z"/><path class="cls-3" d="M69.31,29a22.42,22.42,0,0,1,8.06,1.38,19.31,19.31,0,0,1,6.24,3.81,19,19,0,0,1,4.21,5.67,18.49,18.49,0,0,1,1.82,7,16,16,0,0,1,.08,1.86v8.77a15.45,15.45,0,0,1-.08,1.82,19.93,19.93,0,0,1-1.86,7,18,18,0,0,1-4.17,5.63,19.57,19.57,0,0,1-6.24,3.77,24.26,24.26,0,0,1-16.13,0A19.41,19.41,0,0,1,55,71.85a17.87,17.87,0,0,1-4.18-5.63,20.15,20.15,0,0,1-1.86-7c-.06-.48-.1-1.09-.12-1.82s0-1.47,0-2.23,0-1.43,0-2.15,0-1.4,0-2.12,0-1.51,0-2.27.06-1.38.12-1.86a18.49,18.49,0,0,1,1.82-7,18.92,18.92,0,0,1,10.45-9.48A22.44,22.44,0,0,1,69.31,29m0,34a15.28,15.28,0,0,0,3.32-.36,8.27,8.27,0,0,0,3-1.34,8,8,0,0,0,2.31-2.63,10.58,10.58,0,0,0,1.17-4.17A11.44,11.44,0,0,0,79.19,53a13.16,13.16,0,0,0-.08-1.54,10.58,10.58,0,0,0-1.17-4.17,8.14,8.14,0,0,0-2.31-2.63,8.44,8.44,0,0,0-3-1.34,15.54,15.54,0,0,0-6.65,0,8.32,8.32,0,0,0-3,1.34,7.91,7.91,0,0,0-2.31,2.63,10.58,10.58,0,0,0-1.18,4.17c0,.42-.09.93-.11,1.54a14.92,14.92,0,0,0,.11,1.49,10.58,10.58,0,0,0,1.18,4.17A7.81,7.81,0,0,0,63,61.3a8.15,8.15,0,0,0,3,1.34,15.3,15.3,0,0,0,3.33.36m0-38a26.48,26.48,0,0,0-9.49,1.64,23.19,23.19,0,0,0-7.53,4.61,22.93,22.93,0,0,0-5.09,6.86A22.54,22.54,0,0,0,45,46.45c-.06.57-.1,1.25-.13,2.07s0,1.59,0,2.41,0,1.4,0,2.12,0,1.46,0,2.15,0,1.63,0,2.38.08,1.49.14,2.07a24.26,24.26,0,0,0,2.23,8.29,21.89,21.89,0,0,0,5.1,6.88,23.52,23.52,0,0,0,7.5,4.54,28.28,28.28,0,0,0,19,0,23.59,23.59,0,0,0,7.5-4.55,21.85,21.85,0,0,0,5.09-6.87,24.25,24.25,0,0,0,2.23-8.3,20.2,20.2,0,0,0,.1-2.21V48.66c0-.86,0-1.59-.09-2.21a22.53,22.53,0,0,0-2.21-8.37A22.9,22.9,0,0,0,78.8,26.61,26.52,26.52,0,0,0,69.31,25ZM63.39,53c0-.53.06-.86.08-1a.41.41,0,0,0,0-.11,7,7,0,0,1,.69-2.6,3.72,3.72,0,0,1,1.12-1.32,4.28,4.28,0,0,1,1.57-.71,11.63,11.63,0,0,1,4.89,0,4.28,4.28,0,0,1,1.57.71,3.84,3.84,0,0,1,1.13,1.32,7,7,0,0,1,.68,2.6s0,.07,0,.11a10.72,10.72,0,0,1,0,2,1.1,1.1,0,0,0,0,.18,7,7,0,0,1-.68,2.6A4,4,0,0,1,73.32,58a4.43,4.43,0,0,1-1.57.7,11.63,11.63,0,0,1-4.89,0A4.36,4.36,0,0,1,65.29,58a3.72,3.72,0,0,1-1.12-1.32,6.91,6.91,0,0,1-.69-2.6,1.1,1.1,0,0,0,0-.18c0-.09,0-.35-.07-.92Z"/><path class="cls-3" d="M117.43,29a22.44,22.44,0,0,1,8.07,1.38,19.31,19.31,0,0,1,6.24,3.81A19,19,0,0,1,136,39.83a18.49,18.49,0,0,1,1.82,7,16,16,0,0,1,.08,1.86v8.77a15.45,15.45,0,0,1-.08,1.82,20.15,20.15,0,0,1-1.86,7,18,18,0,0,1-4.17,5.63,19.57,19.57,0,0,1-6.24,3.77,24.26,24.26,0,0,1-16.13,0,19.57,19.57,0,0,1-6.24-3.77A18,18,0,0,1,99,66.22a19.93,19.93,0,0,1-1.86-7c-.06-.48-.1-1.09-.12-1.82s0-1.47,0-2.23,0-1.43,0-2.15,0-1.4,0-2.12,0-1.51,0-2.27.06-1.38.12-1.86a18.49,18.49,0,0,1,1.82-7,19,19,0,0,1,4.21-5.67,19.31,19.31,0,0,1,6.24-3.81A22.42,22.42,0,0,1,117.43,29m0,34a15.3,15.3,0,0,0,3.33-.36,8.15,8.15,0,0,0,3-1.34,7.81,7.81,0,0,0,2.31-2.63,10.58,10.58,0,0,0,1.18-4.17,11.44,11.44,0,0,0,.08-1.49,13.16,13.16,0,0,0-.08-1.54,10.58,10.58,0,0,0-1.18-4.17,7.91,7.91,0,0,0-2.31-2.63,8.32,8.32,0,0,0-3-1.34,15.54,15.54,0,0,0-6.65,0,8.44,8.44,0,0,0-3,1.34,8,8,0,0,0-2.3,2.63,10.41,10.41,0,0,0-1.18,4.17c0,.42-.09.93-.12,1.54s.07,1.13.12,1.49a10.41,10.41,0,0,0,1.18,4.17,7.9,7.9,0,0,0,2.3,2.63,8.27,8.27,0,0,0,3,1.34,15.28,15.28,0,0,0,3.32.36m0-38A26.42,26.42,0,0,0,108,26.61,22.88,22.88,0,0,0,95.32,38.08a22.72,22.72,0,0,0-2.21,8.37c-.06.57-.1,1.25-.13,2.07s0,1.59,0,2.41,0,1.4,0,2.12,0,1.46,0,2.15,0,1.62,0,2.38.07,1.48.14,2.07a24.26,24.26,0,0,0,2.23,8.29,21.89,21.89,0,0,0,5.1,6.88,23.52,23.52,0,0,0,7.5,4.54,28.25,28.25,0,0,0,19,0,23.37,23.37,0,0,0,7.5-4.55,21.73,21.73,0,0,0,5.1-6.87,24.32,24.32,0,0,0,2.23-8.3,20.45,20.45,0,0,0,.1-2.21V48.66c0-.85,0-1.58-.09-2.2a22.58,22.58,0,0,0-2.21-8.38,22.9,22.9,0,0,0-12.62-11.47,26.57,26.57,0,0,0-9.5-1.64Zm-5.91,28c0-.43,0-.78.08-1,0,0,0-.08,0-.12a6.92,6.92,0,0,1,.68-2.6,3.84,3.84,0,0,1,1.13-1.32,4.28,4.28,0,0,1,1.57-.71,11.63,11.63,0,0,1,4.89,0,4.28,4.28,0,0,1,1.57.71,3.84,3.84,0,0,1,1.13,1.32,7,7,0,0,1,.68,2.6.34.34,0,0,0,0,.1,10.94,10.94,0,0,1,0,2,1,1,0,0,0,0,.17,7,7,0,0,1-.68,2.6A3.84,3.84,0,0,1,121.45,58a4.36,4.36,0,0,1-1.57.71,11.63,11.63,0,0,1-4.89,0,4.28,4.28,0,0,1-1.57-.71,3.72,3.72,0,0,1-1.12-1.32,6.67,6.67,0,0,1-.69-2.6,1.23,1.23,0,0,0,0-.19c0-.09,0-.34-.07-.91Z"/><path class="cls-3" d="M183.79,14.39a2.06,2.06,0,0,1,1.54.65,2.1,2.1,0,0,1,.65,1.54V74a2.22,2.22,0,0,1-2.19,2.19h-6.15a2.1,2.1,0,0,1-1.54-.65,2.08,2.08,0,0,1-.65-1.54V72.14a16.08,16.08,0,0,1-1.7,1.58,14.24,14.24,0,0,1-2.56,1.58,17.66,17.66,0,0,1-3.48,1.21,18.63,18.63,0,0,1-4.5.49,16.73,16.73,0,0,1-7.33-1.58,17.5,17.5,0,0,1-5.59-4.21,20.35,20.35,0,0,1-3.65-6.08,22.5,22.5,0,0,1-1.5-7.17c0-.81-.08-1.76-.08-2.84,0-.79,0-1.49.05-2.13s-.05-1.35-.05-2.14c0-1.08,0-2,.08-2.84a22.5,22.5,0,0,1,1.5-7.17,20.17,20.17,0,0,1,3.65-6.07,17.38,17.38,0,0,1,5.59-4.22A16.73,16.73,0,0,1,163.21,29a18.63,18.63,0,0,1,4.5.49,17.66,17.66,0,0,1,3.48,1.21,14.24,14.24,0,0,1,2.56,1.58,16.08,16.08,0,0,1,1.7,1.58V16.58a2.22,2.22,0,0,1,2.19-2.19h6.15M165.64,63a9.85,9.85,0,0,0,6.69-2.35,9.65,9.65,0,0,0,3.12-6.72c0-.29.06-.61.09-.94s0-.66-.09-1a9.78,9.78,0,0,0-3.12-6.64A9.67,9.67,0,0,0,165.64,43a10.1,10.1,0,0,0-6.72,2.31q-2.76,2.31-3.24,7.57a.66.66,0,0,0,0,.14.62.62,0,0,0,0,.13q.48,5.27,3.24,7.57A10.1,10.1,0,0,0,165.64,63m18.15-52.61h-6.15a6.21,6.21,0,0,0-6.19,6.19v9.85a25.42,25.42,0,0,0-2.79-.86,23,23,0,0,0-5.45-.6,20.71,20.71,0,0,0-9.06,2,21.27,21.27,0,0,0-6.87,5.18,24.46,24.46,0,0,0-4.37,7.27,26.35,26.35,0,0,0-1.76,8.39c-.06.89-.09,1.89-.09,3.06,0,.71,0,1.41.05,2.14s-.05,1.42-.05,2.13c0,1.17,0,2.17.09,3.06a26.47,26.47,0,0,0,1.76,8.4,24.41,24.41,0,0,0,4.37,7.26A21.34,21.34,0,0,0,154.14,79a20.78,20.78,0,0,0,9.07,2,23,23,0,0,0,5.45-.6,22.09,22.09,0,0,0,4.28-1.5l.58-.3a6,6,0,0,0,4.12,1.59h6.15A6.21,6.21,0,0,0,190,74V16.58a6.2,6.2,0,0,0-6.19-6.19ZM159.68,53c.18-1.63.63-3.66,1.81-4.65A6.1,6.1,0,0,1,165.64,47a5.69,5.69,0,0,1,4,1.41,5.85,5.85,0,0,1,1.81,4s0,.09,0,.14,0,.27.05.42,0,.28-.05.41,0,.11,0,.16A5.36,5.36,0,0,1,165.64,59a6.1,6.1,0,0,1-4.15-1.37c-1.18-1-1.63-3-1.81-4.64Z"/><path class="cls-3" d="M224.47,15.2a2.54,2.54,0,0,1,1.94.69A6,6,0,0,1,227.55,18L247.4,69.16a1.91,1.91,0,0,1,.08.57,2.12,2.12,0,0,1-.65,1.54c-.06.06-.14.11-.21.17l.78,2a2,2,0,0,1,.08.57,2.22,2.22,0,0,1-2.19,2.19h-5.83a3,3,0,0,1-2.27-.69,4.15,4.15,0,0,1-.89-1.34l-3.49-9h-25.6l-3.48,9a4.2,4.2,0,0,1-.9,1.34,3,3,0,0,1-2.26.69h-5.84A2.22,2.22,0,0,1,192.54,74a1.66,1.66,0,0,1,.09-.57l.77-2-.21-.17a2.12,2.12,0,0,1-.65-1.54,1.62,1.62,0,0,1,.09-.57L212.48,18a5.87,5.87,0,0,1,1.13-2.06,2.54,2.54,0,0,1,1.94-.69h8.92M212.75,50.77h14.53L220,32l-7.26,18.82M224.47,11.2h-8.92a6.45,6.45,0,0,0-4.85,1.94,9.54,9.54,0,0,0-2,3.42L188.9,67.72a1.11,1.11,0,0,0-.07.16,5.92,5.92,0,0,0-.29,1.85,6.05,6.05,0,0,0,.39,2.17l0,.09a1.11,1.11,0,0,0-.07.16,5.92,5.92,0,0,0-.29,1.85,6.23,6.23,0,0,0,6.19,6.19h5.84a6.78,6.78,0,0,0,5.17-2,8,8,0,0,0,1.73-2.67l2.48-6.4h20.12l2.49,6.42a8.16,8.16,0,0,0,1.72,2.66,6.82,6.82,0,0,0,5.18,1.94h5.83A6.21,6.21,0,0,0,251.48,74a5.8,5.8,0,0,0-.29-1.83l-.06-.18,0-.09a6.05,6.05,0,0,0,.39-2.17,5.8,5.8,0,0,0-.29-1.83l-.06-.18L231.3,16.56a9.7,9.7,0,0,0-2-3.41,6.43,6.43,0,0,0-4.86-2Zm-5.89,35.57L220,43.06l1.43,3.71Z"/><path class="cls-3" d="M279,29.78a2.13,2.13,0,0,1,1.54.65,2.11,2.11,0,0,1,.64,1.54v9.62a2.11,2.11,0,0,1-.64,1.54,2.13,2.13,0,0,1-1.54.65h-5.27q-4.86,0-7,2.14c-1.43,1.44-2.15,3.77-2.15,7V74a2.11,2.11,0,0,1-.64,1.54,2.13,2.13,0,0,1-1.54.65h-6.16A2.22,2.22,0,0,1,254,74V32a2.22,2.22,0,0,1,2.19-2.19h6.16a2.13,2.13,0,0,1,1.54.65,2.11,2.11,0,0,1,.64,1.54v1.86a16.56,16.56,0,0,1,4.5-3,15.61,15.61,0,0,1,6.28-1.06H279m0-4h-3.65a19.38,19.38,0,0,0-7.89,1.4c-.26.11-.52.23-.77.36a6.08,6.08,0,0,0-4.3-1.76h-6.16A6.21,6.21,0,0,0,250,32V74a6.23,6.23,0,0,0,6.19,6.19h6.16A6.21,6.21,0,0,0,268.57,74V52.93c0-2.89.69-3.88,1-4.18s1.29-1,4.18-1H279a6.21,6.21,0,0,0,6.18-6.19V32A6.21,6.21,0,0,0,279,25.78Z"/><path class="cls-3" d="M371.45,29.78a2.13,2.13,0,0,1,1.54.65,2.11,2.11,0,0,1,.64,1.54V74a2.11,2.11,0,0,1-.64,1.54,2.13,2.13,0,0,1-1.54.65h-6.16A2.22,2.22,0,0,1,363.1,74V72.14a20,20,0,0,1-4.62,3.36,13.69,13.69,0,0,1-6.64,1.5,19.13,19.13,0,0,1-8.18-1.54,13.65,13.65,0,0,1-5.19-4.13,16,16,0,0,1-2.76-6A31.59,31.59,0,0,1,334.9,58V32a2.22,2.22,0,0,1,2.19-2.19h6.16A2.22,2.22,0,0,1,345.44,32V52.55a13.27,13.27,0,0,0,2.06,7.78c1.38,1.94,3.64,2.92,6.77,2.92a7.82,7.82,0,0,0,6.56-2.92,12.36,12.36,0,0,0,2.27-7.78V32a2.22,2.22,0,0,1,2.19-2.19h6.16m0-4h-6.16A6.21,6.21,0,0,0,359.1,32V52.55a8.59,8.59,0,0,1-1.43,5.33c-.49.63-1.33,1.37-3.4,1.37-2.63,0-3.29-.93-3.5-1.23a9.42,9.42,0,0,1-1.33-5.47V32a6.21,6.21,0,0,0-6.19-6.19h-6.16A6.21,6.21,0,0,0,330.9,32V58a35.64,35.64,0,0,0,.92,8.17,20,20,0,0,0,3.45,7.52,17.68,17.68,0,0,0,6.67,5.34,23,23,0,0,0,9.9,1.93,17.67,17.67,0,0,0,8.55-2l.76-.42a6,6,0,0,0,4.14,1.6h6.16A6.21,6.21,0,0,0,377.63,74V32a6.21,6.21,0,0,0-6.18-6.19Z"/><path class="cls-3" d="M406.94,29a19.74,19.74,0,0,1,8.26,1.54,14.4,14.4,0,0,1,5.35,4.13,15.73,15.73,0,0,1,2.87,6,30,30,0,0,1,.85,7.25V74a2.11,2.11,0,0,1-.64,1.54,2.13,2.13,0,0,1-1.54.65h-6.16A2.22,2.22,0,0,1,413.74,74V53.42a12.36,12.36,0,0,0-2.27-7.78c-1.51-1.94-3.83-2.92-7-2.92a8.41,8.41,0,0,0-6.76,2.92,11.63,11.63,0,0,0-2.47,7.78V74a2.22,2.22,0,0,1-2.19,2.19h-6.16A2.22,2.22,0,0,1,384.73,74V32a2.22,2.22,0,0,1,2.19-2.19h6.16A2.22,2.22,0,0,1,395.27,32v1.86a18.16,18.16,0,0,1,4.94-3.48A15.22,15.22,0,0,1,406.94,29m0-4a19.27,19.27,0,0,0-8.48,1.78c-.42.21-.83.42-1.23.65a6.05,6.05,0,0,0-4.15-1.62h-6.16A6.21,6.21,0,0,0,380.73,32V74a6.23,6.23,0,0,0,6.19,6.19h6.16A6.23,6.23,0,0,0,399.27,74V53.42a7.78,7.78,0,0,1,1.52-5.19,4.35,4.35,0,0,1,3.71-1.51c2.46,0,3.36.79,3.82,1.38a8.6,8.6,0,0,1,1.42,5.32V74a6.21,6.21,0,0,0,6.19,6.19h6.16A6.2,6.2,0,0,0,428.27,74V47.93a34.38,34.38,0,0,0-1-8.21,20,20,0,0,0-3.61-7.54,18.29,18.29,0,0,0-6.82-5.3A23.75,23.75,0,0,0,406.94,25Z"/><path class="cls-3" d="M471.75,14.39a2.22,2.22,0,0,1,2.19,2.19V74a2.08,2.08,0,0,1-.65,1.54,2.1,2.1,0,0,1-1.54.65H465.6a2.1,2.1,0,0,1-1.54-.65,2.08,2.08,0,0,1-.65-1.54V72.14a15.15,15.15,0,0,1-1.7,1.58,14.49,14.49,0,0,1-2.55,1.58,18,18,0,0,1-3.49,1.21,18.63,18.63,0,0,1-4.5.49,16.73,16.73,0,0,1-7.33-1.58,17.5,17.5,0,0,1-5.59-4.21,20.56,20.56,0,0,1-3.65-6.08A22.22,22.22,0,0,1,433.11,58c-.06-.81-.09-1.76-.09-2.84,0-.79,0-1.49.05-2.13s-.05-1.35-.05-2.14c0-1.08,0-2,.09-2.84a22.22,22.22,0,0,1,1.49-7.17,20.38,20.38,0,0,1,3.65-6.07,17.38,17.38,0,0,1,5.59-4.22A16.73,16.73,0,0,1,451.17,29a18.63,18.63,0,0,1,4.5.49,18,18,0,0,1,3.49,1.21,14.49,14.49,0,0,1,2.55,1.58,15.15,15.15,0,0,1,1.7,1.58V16.58a2.22,2.22,0,0,1,2.19-2.19h6.15M453.6,63a9.85,9.85,0,0,0,6.69-2.35,9.65,9.65,0,0,0,3.12-6.72c0-.29.07-.61.09-.94s-.05-.66-.09-1a9.78,9.78,0,0,0-3.12-6.64A9.67,9.67,0,0,0,453.6,43a10.1,10.1,0,0,0-6.72,2.31q-2.76,2.31-3.24,7.57a.66.66,0,0,0,0,.14.62.62,0,0,0,0,.13q.48,5.27,3.24,7.57A10.1,10.1,0,0,0,453.6,63m18.15-52.61H465.6a6.21,6.21,0,0,0-6.19,6.19v9.85a25.42,25.42,0,0,0-2.79-.86,23,23,0,0,0-5.45-.6,20.71,20.71,0,0,0-9.06,2,21.27,21.27,0,0,0-6.87,5.18,24.23,24.23,0,0,0-4.36,7.27,26.36,26.36,0,0,0-1.77,8.39c-.06.89-.09,1.89-.09,3.06,0,.71,0,1.41.05,2.14s-.05,1.42-.05,2.13c0,1.17,0,2.17.09,3.06a26.48,26.48,0,0,0,1.77,8.4,24.17,24.17,0,0,0,4.36,7.26A21.34,21.34,0,0,0,442.1,79a20.78,20.78,0,0,0,9.07,2,23,23,0,0,0,5.45-.6,22.09,22.09,0,0,0,4.28-1.5l.58-.3a6,6,0,0,0,4.12,1.59h6.15A6.21,6.21,0,0,0,477.94,74V16.58a6.2,6.2,0,0,0-6.19-6.19ZM447.65,53c.17-1.63.62-3.66,1.8-4.65A6.1,6.1,0,0,1,453.6,47a5.67,5.67,0,0,1,4,1.41,5.85,5.85,0,0,1,1.81,4s0,.09,0,.14,0,.27.05.42,0,.28-.05.41,0,.11,0,.16A5.36,5.36,0,0,1,453.6,59a6.1,6.1,0,0,1-4.15-1.37c-1.18-1-1.63-3-1.8-4.64Z"/><path class="cls-4" d="M305.37,24C294,25.34,287.11,36.23,290.79,47.39c3.36,10.16,9.09,19.06,15.12,28.13a1.85,1.85,0,0,0,3.09,0c1.72-2.63,3.37-5.1,4.91-7.64,4.2-6.88,8.34-13.82,10.54-21.66A17.54,17.54,0,0,0,305.37,24Zm2.15,25.4a7.38,7.38,0,1,1,7.3-7.39A7.38,7.38,0,0,1,307.52,49.37Z"/><path class="cls-3" d="M307.44,78.35a3.86,3.86,0,0,1-3.2-1.72c-6.41-9.66-12-18.48-15.35-28.61a20.16,20.16,0,0,1,1.92-17.18,19.69,19.69,0,0,1,35.57,15.91c-2.19,7.76-6,14.35-10.76,22.16-1.36,2.24-2.78,4.4-4.29,6.69l-.66,1a3.9,3.9,0,0,1-3.22,1.74Zm.16-52.51a16.86,16.86,0,0,0-2,.12h0a15.61,15.61,0,0,0-11.42,7,16.14,16.14,0,0,0-1.5,13.77c3.17,9.6,8.56,18.12,14.76,27.46l.54-.82c1.49-2.26,2.89-4.39,4.21-6.57,3.81-6.24,8.12-13.32,10.33-21.16A15.54,15.54,0,0,0,307.6,25.84Zm-.14,25.53a9.37,9.37,0,0,1-9.37-9.5,9.37,9.37,0,1,1,9.44,9.5h-.07Zm0-14.75a5.37,5.37,0,0,0-3.81,9.16,5.32,5.32,0,0,0,3.81,1.59h0a5.38,5.38,0,0,0,0-10.75Z"/><path class="cls-3" d="M315.09,75.58c-.65,1-1.32,2-2,3.09a33.76,33.76,0,0,1,8.13,1.54.7.7,0,0,1,0,1.32,39.73,39.73,0,0,1-11.16,1.72c-.79,0-1.62,0-2.48,0h-.93c-.63,0-1.25,0-1.84,0A40.93,40.93,0,0,1,293,81.53a.7.7,0,0,1,0-1.32,34.47,34.47,0,0,1,8.71-1.59c-.69-1-1.36-2.06-2-3.09-5.18.55-11.58,1.92-11.58,5.33,0,5.46,16.52,5.71,18.88,5.72h.89c3.9-.06,18.2-.63,18.2-5.71C326.13,77.56,320.16,76.17,315.09,75.58Z"/></g></g></svg>